<?xml version="1.0" standalone="no"?>
<!DOCTYPE svg PUBLIC "-//W3C//DTD SVG 20010904//EN"
 "http://www.w3.org/TR/2001/REC-SVG-20010904/DTD/svg10.dtd">
<svg version="1.0" xmlns="http://www.w3.org/2000/svg"
 width="1280.000000pt" height="1198.000000pt" viewBox="0 0 1280.000000 1198.000000"
 preserveAspectRatio="xMidYMid meet">
<g transform="translate(0.000000,1198.000000) scale(0.100000,-0.100000)"
fill="#000000" stroke="none">
<path d="M1762 11957 c-51 -54 -95 -260 -108 -505 -5 -86 -11 -128 -21 -138
-33 -32 -186 -11 -264 37 -73 46 -122 47 -304 10 -165 -33 -280 -47 -486 -56
l-136 -7 -47 41 c-56 49 -108 66 -169 57 -97 -15 -167 -102 -167 -207 1 -173
200 -263 326 -147 l45 41 172 -6 c199 -7 293 -18 467 -54 177 -36 210 -34 309
18 77 40 87 43 167 43 60 1 87 -3 93 -12 4 -7 11 -66 14 -131 17 -306 81 -541
142 -517 46 17 96 217 115 456 7 80 14 155 16 168 4 22 7 22 138 22 l135 0 6
-57 c23 -211 51 -320 90 -351 19 -15 48 -20 155 -25 74 -4 143 -12 158 -19
l27 -13 -3 -120 c-2 -66 1 -212 7 -325 6 -113 15 -308 21 -434 6 -125 15 -236
20 -246 6 -11 35 -26 67 -35 32 -9 69 -25 84 -35 37 -27 74 -100 66 -132 -9
-34 -89 -127 -149 -173 -27 -20 -51 -47 -54 -62 -8 -29 0 -326 68 -2493 17
-552 17 -2377 0 -2735 -17 -360 -37 -674 -63 -992 -21 -246 -21 -263 -5 -287
21 -33 52 -33 96 -1 50 37 89 33 145 -15 39 -34 53 -40 91 -40 73 0 108 -54
85 -130 -23 -79 -104 -142 -195 -154 -27 -3 -61 -13 -74 -22 -24 -16 -74 -15
-113 1 -22 8 -84 -46 -110 -97 -36 -71 -99 -451 -99 -600 0 -57 -3 -65 -39
-108 -117 -138 -170 -362 -158 -670 10 -263 44 -402 109 -437 31 -17 94 -18
1323 -18 710 0 2521 4 4025 8 2396 8 2738 11 2758 24 78 49 119 334 108 743
-6 250 -14 303 -49 321 -11 7 -71 15 -131 19 -141 10 -146 15 -146 139 0 47
-8 203 -17 346 -15 223 -17 437 -18 1490 0 980 -3 1235 -13 1252 -21 37 -66
54 -153 56 -88 2 -100 10 -140 84 -13 24 -28 33 -81 47 -37 10 -75 26 -87 37
-31 29 -27 74 9 111 54 53 54 57 5 157 -68 140 -60 168 57 185 41 6 53 14 93
61 54 63 83 75 180 75 46 0 76 5 83 13 7 8 12 323 15 967 3 525 10 1086 16
1245 41 1092 74 1792 107 2285 15 212 27 458 28 548 1 142 3 163 18 168 57 18
105 111 140 269 35 162 35 757 -1 823 -8 15 -24 22 -63 26 -29 3 -948 12
-2043 21 -1094 9 -2894 25 -4000 35 -1385 14 -2019 17 -2040 10 -78 -26 -154
-162 -187 -337 -11 -59 -22 -118 -24 -129 -5 -27 -37 -34 -163 -34 -62 0 -101
4 -109 12 -7 7 -12 37 -12 68 0 76 -26 299 -46 390 -18 83 -53 168 -76 187
-12 11 -19 9 -36 -10z"/>
<path d="M10998 11963 c-27 -31 -48 -81 -68 -161 -22 -89 -50 -318 -50 -408 0
-42 -5 -65 -15 -74 -10 -9 -50 -11 -135 -9 -99 3 -121 1 -126 -11 -3 -8 -2
-63 2 -122 l7 -108 128 0 c150 0 134 16 144 -150 15 -268 75 -500 129 -500 57
0 116 229 131 505 10 173 -2 158 118 153 93 -4 106 -7 152 -35 28 -18 71 -36
95 -42 47 -10 53 -9 270 32 142 27 355 47 504 47 l89 0 42 -39 c125 -115 324
-24 325 148 0 105 -70 192 -167 207 -61 9 -113 -8 -169 -57 l-47 -41 -136 7
c-206 9 -321 23 -486 56 -182 37 -231 36 -304 -9 -29 -18 -75 -37 -103 -43
-60 -13 -157 -7 -167 10 -5 7 -11 66 -14 132 -14 246 -60 460 -111 508 -22 20
-23 20 -38 4z"/>
<path d="M1756 1541 c-43 -48 -89 -268 -101 -486 -10 -169 0 -155 -109 -155
-89 0 -96 2 -169 40 -93 49 -132 51 -305 15 -170 -35 -354 -55 -513 -55 -133
0 -136 0 -160 26 -98 105 -268 74 -324 -58 -31 -76 -10 -183 46 -235 78 -72
207 -67 278 11 24 26 26 26 160 26 168 0 284 -12 471 -47 80 -16 177 -28 215
-28 61 0 76 4 123 32 29 18 71 37 95 43 61 14 163 13 174 -3 6 -6 13 -67 17
-135 12 -247 59 -463 110 -511 22 -20 23 -20 39 -4 24 28 53 102 71 184 20 91
46 313 46 391 0 79 6 81 199 77 l156 -4 3 122 3 123 -178 2 -178 3 -3 55 c-10
222 -54 472 -95 545 -26 46 -46 54 -71 26z"/>
<path d="M10982 1532 c-44 -61 -85 -260 -97 -472 -10 -164 1 -150 -110 -150
l-96 0 3 -122 3 -123 81 3 c102 5 114 -5 114 -86 0 -158 48 -440 89 -520 30
-58 44 -66 69 -39 51 54 95 260 108 505 9 156 9 157 118 148 66 -6 95 -14 160
-46 93 -47 131 -50 269 -20 169 37 290 51 485 57 l193 6 32 -31 c131 -127 336
-42 337 141 0 86 -41 154 -115 188 -76 35 -166 17 -224 -45 -24 -26 -27 -26
-160 -26 -159 0 -343 20 -513 55 -173 36 -212 34 -305 -15 -73 -38 -80 -40
-169 -40 -109 0 -99 -14 -109 155 -15 276 -74 505 -131 505 -7 0 -21 -12 -32
-28z"/>
</g>
</svg>
